<svg xmlns="http://www.w3.org/2000/svg" version="1.1" xmlns:xlink="http://www.w3.org/1999/xlink" width="512" height="512" x="0" y="0" viewBox="0 0 436.912 436.912" style="enable-background:new 0 0 512 512" xml:space="preserve" class=""><g><path d="M423.877 320.858H170.046c-7.187 0-13.032 5.864-13.032 13.073v89.907c0 7.207 5.847 13.073 13.032 13.073h253.831c7.185 0 13.032-5.864 13.032-13.073v-89.907c0-7.207-5.847-13.073-13.032-13.073zm-.622 102.401H170.669v-88.747h252.587v88.747zM266.863 197.978H13.033C5.846 197.978 0 203.844 0 211.053v89.906c0 7.207 5.847 13.073 13.032 13.073h253.831c7.185 0 13.032-5.864 13.03-13.073v-89.906c.001-7.209-5.844-13.075-13.03-13.075zm-.621 102.401H13.656v-88.747h252.587v88.747zM130.492 320.858H12.872c-7.096 0-12.87 5.864-12.87 13.073v89.907c0 7.207 5.774 13.073 12.87 13.073h117.62c7.096 0 12.87-5.864 12.87-13.073v-89.907c0-7.207-5.773-13.073-12.87-13.073zm-.783 102.401H13.656v-88.747h116.053v88.747z" fill="#000000" opacity="1" data-original="#000000" class=""></path><path d="M160.402 170.672h-40.905c-5.661 0-10.267 4.886-10.267 10.892v23.241h13.653v-20.48h34.133v20.48h13.653v-23.241c0-6.006-4.606-10.892-10.267-10.892zM85.31 170.672H44.405c-5.663 0-10.269 4.886-10.269 10.892v23.241h13.653v-20.48h34.133v20.48H95.577v-23.241c0-6.006-4.606-10.892-10.267-10.892zM242.323 170.672h-40.907c-5.661 0-10.267 4.886-10.267 10.892v23.241h13.653v-20.48h34.133v20.48H252.59v-23.241c.001-6.006-4.606-10.892-10.267-10.892zM436.467 147.195a12.791 12.791 0 0 0-6.052-7.852L213.617 15.374c-6.166-3.535-14.082-1.422-17.65 4.702l-44.018 75.52a12.722 12.722 0 0 0-1.326 9.784 12.804 12.804 0 0 0 6.062 7.875l216.813 123.984a12.877 12.877 0 0 0 6.403 1.698c4.473-.002 8.837-2.304 11.23-6.414l44.029-75.532a12.76 12.76 0 0 0 1.307-9.796zm-56.783 77.855L164.141 101.791l43.271-74.238L422.96 150.806l-43.276 74.244z" fill="#000000" opacity="1" data-original="#000000" class=""></path><path d="M355.946 64.244 319.279 42.37c-2.354-1.399-5.129-1.772-7.811-1.048-2.802.754-5.24 2.676-6.683 5.27l-11.235 20.12 11.919 6.656 9.776-17.505 31.09 18.546-9.972 17.84 11.918 6.661 11.25-20.128c2.844-5.121 1.245-11.637-3.585-14.538zM287.68 23.288 251.026 1.417c-2.354-1.401-5.123-1.78-7.803-1.06-2.801.751-5.243 2.673-6.699 5.275l-11.24 20.11 11.918 6.661 9.781-17.498 31.08 18.546-9.969 17.838 11.918 6.659 11.247-20.123c2.865-5.139 1.256-11.662-3.579-14.537zM424.206 105.206l-36.661-21.874c-2.35-1.398-5.122-1.77-7.806-1.05-2.801.754-5.24 2.676-6.688 5.272l-11.235 20.118 11.919 6.656 9.776-17.505 31.083 18.548-9.965 17.84 11.919 6.658 11.232-20.106c2.876-5.136 1.271-11.668-3.574-14.557zM399.335 293.552h-40.904c-5.663 0-10.269 4.886-10.269 10.892v23.241h13.653v-20.48h34.133v20.48H409.603v-23.241c.001-6.006-4.607-10.892-10.268-10.892z" fill="#000000" opacity="1" data-original="#000000" class=""></path></g></svg>
